<mxfile host="app.diagrams.net" modified="2022-04-29T06:54:25.678Z" agent="5.0 (Windows NT 10.0; Win64; x64) AppleWebKit/537.36 (KHTML, like Gecko) Chrome/100.0.4896.127 Safari/537.36" etag="7hVdUE49O5ALgriye7XS" version="17.4.6" type="github">
  <diagram id="DpSAvLfnlYn0Z25GM2OV" name="Page-1">
    <mxGraphModel dx="868" dy="492" grid="1" gridSize="10" guides="1" tooltips="1" connect="1" arrows="1" fold="1" page="1" pageScale="1" pageWidth="827" pageHeight="1169" math="0" shadow="0">
      <root>
        <mxCell id="0" />
        <mxCell id="1" parent="0" />
        <mxCell id="9ZL7svNFM9R4jddcPa63-1" value="Producto" style="rounded=1;whiteSpace=wrap;html=1;fontStyle=1" vertex="1" parent="1">
          <mxGeometry x="660" y="114" width="120" height="60" as="geometry" />
        </mxCell>
        <mxCell id="9ZL7svNFM9R4jddcPa63-6" style="edgeStyle=orthogonalEdgeStyle;rounded=0;orthogonalLoop=1;jettySize=auto;html=1;entryX=0.5;entryY=0;entryDx=0;entryDy=0;endArrow=none;endFill=0;" edge="1" parent="1" source="9ZL7svNFM9R4jddcPa63-2" target="9ZL7svNFM9R4jddcPa63-4">
          <mxGeometry relative="1" as="geometry" />
        </mxCell>
        <mxCell id="9ZL7svNFM9R4jddcPa63-2" value="Vendedor" style="rounded=1;whiteSpace=wrap;html=1;fontStyle=1" vertex="1" parent="1">
          <mxGeometry x="120" y="120" width="120" height="60" as="geometry" />
        </mxCell>
        <mxCell id="9ZL7svNFM9R4jddcPa63-3" value="Sucursal" style="rounded=1;whiteSpace=wrap;html=1;fontStyle=1" vertex="1" parent="1">
          <mxGeometry x="310" y="290" width="80" height="50" as="geometry" />
        </mxCell>
        <mxCell id="9ZL7svNFM9R4jddcPa63-4" value="Clientes" style="rounded=1;whiteSpace=wrap;html=1;fontStyle=1" vertex="1" parent="1">
          <mxGeometry x="120" y="316" width="120" height="60" as="geometry" />
        </mxCell>
        <mxCell id="9ZL7svNFM9R4jddcPa63-5" value="Ventas" style="rounded=1;whiteSpace=wrap;html=1;fontStyle=1" vertex="1" parent="1">
          <mxGeometry x="400" y="114" width="120" height="60" as="geometry" />
        </mxCell>
        <mxCell id="9ZL7svNFM9R4jddcPa63-7" value="1" style="text;align=center;fontStyle=1;verticalAlign=middle;spacingLeft=3;spacingRight=3;strokeColor=none;rotatable=0;points=[[0,0.5],[1,0.5]];portConstraint=eastwest;" vertex="1" parent="1">
          <mxGeometry x="150" y="180" width="80" height="26" as="geometry" />
        </mxCell>
        <mxCell id="9ZL7svNFM9R4jddcPa63-8" value="N" style="text;align=center;fontStyle=1;verticalAlign=middle;spacingLeft=3;spacingRight=3;strokeColor=none;rotatable=0;points=[[0,0.5],[1,0.5]];portConstraint=eastwest;" vertex="1" parent="1">
          <mxGeometry x="150" y="290" width="80" height="26" as="geometry" />
        </mxCell>
        <mxCell id="9ZL7svNFM9R4jddcPa63-13" value="&lt;b&gt;&lt;u&gt;DNI&lt;/u&gt;&lt;/b&gt;" style="ellipse;whiteSpace=wrap;html=1;" vertex="1" parent="1">
          <mxGeometry x="70" y="40" width="60" height="50" as="geometry" />
        </mxCell>
        <mxCell id="9ZL7svNFM9R4jddcPa63-14" value="" style="endArrow=none;html=1;rounded=0;" edge="1" parent="1">
          <mxGeometry width="50" height="50" relative="1" as="geometry">
            <mxPoint x="150" y="120" as="sourcePoint" />
            <mxPoint x="190" y="80" as="targetPoint" />
            <Array as="points">
              <mxPoint x="170" y="100" />
            </Array>
          </mxGeometry>
        </mxCell>
        <mxCell id="9ZL7svNFM9R4jddcPa63-21" value="&lt;b&gt;Nombre&lt;/b&gt;" style="ellipse;whiteSpace=wrap;html=1;" vertex="1" parent="1">
          <mxGeometry x="180" y="40" width="60" height="50" as="geometry" />
        </mxCell>
        <mxCell id="9ZL7svNFM9R4jddcPa63-24" value="" style="endArrow=none;html=1;rounded=0;exitX=0.933;exitY=0;exitDx=0;exitDy=0;exitPerimeter=0;" edge="1" parent="1" source="9ZL7svNFM9R4jddcPa63-2">
          <mxGeometry width="50" height="50" relative="1" as="geometry">
            <mxPoint x="240" y="150" as="sourcePoint" />
            <mxPoint x="280" y="90" as="targetPoint" />
          </mxGeometry>
        </mxCell>
        <mxCell id="9ZL7svNFM9R4jddcPa63-25" value="&lt;b&gt;Cargo&lt;/b&gt;" style="ellipse;whiteSpace=wrap;html=1;" vertex="1" parent="1">
          <mxGeometry x="270" y="50" width="60" height="50" as="geometry" />
        </mxCell>
        <mxCell id="9ZL7svNFM9R4jddcPa63-28" value="" style="endArrow=none;html=1;rounded=0;" edge="1" parent="1">
          <mxGeometry width="50" height="50" relative="1" as="geometry">
            <mxPoint x="120" y="130" as="sourcePoint" />
            <mxPoint x="100" y="90" as="targetPoint" />
          </mxGeometry>
        </mxCell>
        <mxCell id="9ZL7svNFM9R4jddcPa63-31" value="" style="endArrow=none;html=1;rounded=0;entryX=-0.008;entryY=0.633;entryDx=0;entryDy=0;entryPerimeter=0;" edge="1" parent="1" target="9ZL7svNFM9R4jddcPa63-5">
          <mxGeometry width="50" height="50" relative="1" as="geometry">
            <mxPoint x="240" y="152" as="sourcePoint" />
            <mxPoint x="290" y="100" as="targetPoint" />
          </mxGeometry>
        </mxCell>
        <mxCell id="9ZL7svNFM9R4jddcPa63-32" value="1" style="text;html=1;align=center;verticalAlign=middle;resizable=0;points=[];autosize=1;strokeColor=none;fillColor=none;fontStyle=1" vertex="1" parent="1">
          <mxGeometry x="240" y="134" width="20" height="20" as="geometry" />
        </mxCell>
        <mxCell id="9ZL7svNFM9R4jddcPa63-34" value="N" style="text;html=1;align=center;verticalAlign=middle;resizable=0;points=[];autosize=1;strokeColor=none;fillColor=none;fontStyle=1" vertex="1" parent="1">
          <mxGeometry x="380" y="134" width="20" height="20" as="geometry" />
        </mxCell>
        <mxCell id="9ZL7svNFM9R4jddcPa63-35" value="" style="endArrow=none;html=1;rounded=0;entryX=0;entryY=0.633;entryDx=0;entryDy=0;entryPerimeter=0;" edge="1" parent="1" target="9ZL7svNFM9R4jddcPa63-1">
          <mxGeometry width="50" height="50" relative="1" as="geometry">
            <mxPoint x="520" y="150" as="sourcePoint" />
            <mxPoint x="600" y="150" as="targetPoint" />
          </mxGeometry>
        </mxCell>
        <mxCell id="9ZL7svNFM9R4jddcPa63-37" value="N" style="text;html=1;align=center;verticalAlign=middle;resizable=0;points=[];autosize=1;strokeColor=none;fillColor=none;fontStyle=1" vertex="1" parent="1">
          <mxGeometry x="520" y="134" width="20" height="20" as="geometry" />
        </mxCell>
        <mxCell id="9ZL7svNFM9R4jddcPa63-39" value="N" style="text;html=1;align=center;verticalAlign=middle;resizable=0;points=[];autosize=1;strokeColor=none;fillColor=none;fontStyle=1" vertex="1" parent="1">
          <mxGeometry x="640" y="134" width="20" height="20" as="geometry" />
        </mxCell>
        <mxCell id="9ZL7svNFM9R4jddcPa63-41" value="" style="endArrow=none;html=1;rounded=0;exitX=0.863;exitY=0;exitDx=0;exitDy=0;exitPerimeter=0;" edge="1" parent="1" source="9ZL7svNFM9R4jddcPa63-7">
          <mxGeometry width="50" height="50" relative="1" as="geometry">
            <mxPoint x="240" y="180" as="sourcePoint" />
            <mxPoint x="310" y="310" as="targetPoint" />
          </mxGeometry>
        </mxCell>
        <mxCell id="9ZL7svNFM9R4jddcPa63-42" value="&lt;b&gt;N&lt;/b&gt;" style="text;html=1;align=center;verticalAlign=middle;resizable=0;points=[];autosize=1;strokeColor=none;fillColor=none;" vertex="1" parent="1">
          <mxGeometry x="200" y="183" width="20" height="20" as="geometry" />
        </mxCell>
        <mxCell id="9ZL7svNFM9R4jddcPa63-43" value="&lt;b&gt;1&lt;/b&gt;" style="text;html=1;align=center;verticalAlign=middle;resizable=0;points=[];autosize=1;strokeColor=none;fillColor=none;" vertex="1" parent="1">
          <mxGeometry x="290" y="305" width="20" height="20" as="geometry" />
        </mxCell>
        <mxCell id="9ZL7svNFM9R4jddcPa63-48" value="&lt;b&gt;Atiende&lt;/b&gt;" style="rhombus;whiteSpace=wrap;html=1;" vertex="1" parent="1">
          <mxGeometry x="140" y="220" width="80" height="66" as="geometry" />
        </mxCell>
        <mxCell id="9ZL7svNFM9R4jddcPa63-50" value="&lt;b&gt;Realiza&lt;/b&gt;" style="rhombus;whiteSpace=wrap;html=1;" vertex="1" parent="1">
          <mxGeometry x="280" y="110" width="80" height="80" as="geometry" />
        </mxCell>
        <mxCell id="9ZL7svNFM9R4jddcPa63-56" value="" style="endArrow=none;html=1;rounded=0;entryX=0.608;entryY=1.017;entryDx=0;entryDy=0;entryPerimeter=0;endFill=0;" edge="1" parent="1" target="9ZL7svNFM9R4jddcPa63-5">
          <mxGeometry width="50" height="50" relative="1" as="geometry">
            <mxPoint x="240" y="370" as="sourcePoint" />
            <mxPoint x="290" y="326" as="targetPoint" />
            <Array as="points">
              <mxPoint x="473" y="370" />
            </Array>
          </mxGeometry>
        </mxCell>
        <mxCell id="9ZL7svNFM9R4jddcPa63-57" value="&lt;b&gt;N&lt;/b&gt;" style="text;html=1;align=center;verticalAlign=middle;resizable=0;points=[];autosize=1;strokeColor=none;fillColor=none;" vertex="1" parent="1">
          <mxGeometry x="480" y="174" width="20" height="20" as="geometry" />
        </mxCell>
        <mxCell id="9ZL7svNFM9R4jddcPa63-58" value="&lt;b&gt;1&lt;/b&gt;" style="text;html=1;align=center;verticalAlign=middle;resizable=0;points=[];autosize=1;strokeColor=none;fillColor=none;" vertex="1" parent="1">
          <mxGeometry x="240" y="350" width="20" height="20" as="geometry" />
        </mxCell>
        <mxCell id="9ZL7svNFM9R4jddcPa63-51" value="&lt;b&gt;Trabaja&lt;/b&gt;" style="rhombus;whiteSpace=wrap;html=1;" vertex="1" parent="1">
          <mxGeometry x="230" y="220" width="80" height="66" as="geometry" />
        </mxCell>
        <mxCell id="9ZL7svNFM9R4jddcPa63-60" value="&lt;b&gt;EfectÃºa&lt;/b&gt;" style="rhombus;whiteSpace=wrap;html=1;" vertex="1" parent="1">
          <mxGeometry x="430" y="320" width="80" height="80" as="geometry" />
        </mxCell>
        <mxCell id="9ZL7svNFM9R4jddcPa63-64" value="" style="endArrow=none;html=1;rounded=0;entryX=0.5;entryY=0;entryDx=0;entryDy=0;" edge="1" parent="1" target="9ZL7svNFM9R4jddcPa63-3">
          <mxGeometry width="50" height="50" relative="1" as="geometry">
            <mxPoint x="240" y="174" as="sourcePoint" />
            <mxPoint x="340" y="210" as="targetPoint" />
            <Array as="points">
              <mxPoint x="380" y="230" />
            </Array>
          </mxGeometry>
        </mxCell>
        <mxCell id="9ZL7svNFM9R4jddcPa63-66" value="&lt;b&gt;Dirige&lt;/b&gt;" style="rhombus;whiteSpace=wrap;html=1;" vertex="1" parent="1">
          <mxGeometry x="330" y="190" width="80" height="67" as="geometry" />
        </mxCell>
        <mxCell id="9ZL7svNFM9R4jddcPa63-68" value="&lt;b&gt;1&lt;/b&gt;" style="text;html=1;align=center;verticalAlign=middle;resizable=0;points=[];autosize=1;strokeColor=none;fillColor=none;" vertex="1" parent="1">
          <mxGeometry x="240" y="160" width="20" height="20" as="geometry" />
        </mxCell>
        <mxCell id="9ZL7svNFM9R4jddcPa63-71" value="&lt;b&gt;N&lt;/b&gt;" style="text;html=1;align=center;verticalAlign=middle;resizable=0;points=[];autosize=1;strokeColor=none;fillColor=none;" vertex="1" parent="1">
          <mxGeometry x="360" y="270" width="20" height="20" as="geometry" />
        </mxCell>
        <mxCell id="9ZL7svNFM9R4jddcPa63-72" value="&lt;b&gt;Detalle_V&lt;/b&gt;" style="rhombus;whiteSpace=wrap;html=1;" vertex="1" parent="1">
          <mxGeometry x="560" y="115" width="70" height="70" as="geometry" />
        </mxCell>
      </root>
    </mxGraphModel>
  </diagram>
</mxfile>
